<?xml version="1.0" encoding="utf-8"?>
<!-- Generator: Adobe Illustrator 19.2.1, SVG Export Plug-In . SVG Version: 6.00 Build 0)  -->
<svg version="1.1" id="Layer_1" xmlns="http://www.w3.org/2000/svg" xmlns:xlink="http://www.w3.org/1999/xlink" x="0px" y="0px"
	 viewBox="0 0 1331 386.7" style="enable-background:new 0 0 1331 386.7;" xml:space="preserve">
<style type="text/css">
	.st0{fill:#8C807F;stroke:#342F38;stroke-width:2;stroke-miterlimit:10;}
	.st1{fill:#342F38;}
	.st2{fill:none;stroke:#342F38;stroke-width:2;stroke-miterlimit:10;}
	.st3{fill:#8C807F;}
	.st4{fill:none;stroke:#006838;stroke-miterlimit:10;}
	.st5{stroke:#FFFFFF;stroke-miterlimit:10;}
	.st6{stroke:#FFFFFF;stroke-width:2;stroke-miterlimit:10;}
	.st7{fill:#342F38;stroke:#342F38;stroke-width:2;stroke-miterlimit:10;}
	.st8{fill:#342F38;stroke:#FFFFFF;stroke-miterlimit:10;}
	.st9{font-family:'Raleway-ExtraBold';}
	.st10{font-size:120px;}
	.st11{font-family:'Raleway-Bold';}
	.st12{font-size:110px;}
	.st13{letter-spacing:5;}
	.st14{fill:none;stroke:#000000;stroke-width:2;stroke-miterlimit:10;}
</style>
<path class="st0" d="M312.2,180.9c0,0-30.8,31.4-109.1,43.9c0,0-47.6,12-79.5,38.6c0,0-30,12.8-31.2,13.4
	c-1.2,0.5-18.2,6.1-17.4,10.7c0.8,4.6,4.6,4.5,4.6,4.5s0.4,1.9,34.2-9.9c0,0,5.7-1.5,1.5,5.8c-4.2,7.4-12.8,38.5,1.6,65.7l1,15.6
	h55.2c0,0,19.3-46.8,17.9-56.9c0,0,22.3-21.2,57.9,0.5s52.2,10.2,52.2,10.2l6.8,48h27.8c0,0,5-66,18.3-102
	c13.4-36,19.7-41.1,15-68.4c0,0,9.2-38.8,29.3-45.4c0,0,27-2,33.2-20.4c0,0,9.2,0.7,5.5-12.9s-9.2-17.6-9.2-17.6
	s-32.1,19.1-50.2,0.7c0,0-39,3-44.4,31S312.2,180.9,312.2,180.9z"/>
<g id="XMLID_1_">
	<g>
		<path class="st1" d="M26.1,236c-0.4-2.9,4.5-6,6.1-6.8c1.4-0.7,29.7-14.1,30.9-14.6l0,0c10.1-4.8,20.1-10.5,29.8-17.3
			c8-5.9,18.2-12.6,30.9-18.5c6.4-3,11.3-4.9,19.7-8c7.3-2.7,21.7-7.6,34.6-11.6c19.1-6,26.4-7.5,57.2-18.7
			c44.3-16.1,59.3-38.2,59.3-38.2s10-15.4,12.1-25.4c0.9-4.3,1.3-7.6,1.9-10.2c0.8-3.6-4.7-22.7,23.5-35.5
			c17.7-8.1,22.6-8.6,25.1-8.1c0.8,0.2,2.1,1.6,2.7,2c5.2,4,17.5,13.4,53.1-2.8c0.5-0.2,1.1-0.1,1.4,0.4c3.1,4.7,17.8,28.2,4.8,30.9
			c-0.4,0.1-0.8,0.4-0.9,0.8c-1.3,3.9-9.3,23.7-35.2,22.6c-0.2,0-0.4,0-0.5,0.1c-1.9,0.9-14.4,7.4-24.9,32.6
			c-0.1,0.3-0.4,0.6-0.7,0.7c-3.1,1.2-7.4,3.3-11.7,6.8c-5.6,4.7-9.8,13.5-10.4,14.9c-0.1,0.2-0.1,0.3-0.1,0.4
			c-0.4,1.6-3,11.3-4.4,15.5c-4.7,14.3-11.8,25.1-17.6,32.3c-0.1,0.1-0.1,0.1-0.2,0.2c-8.7,6.7-19.4,13.8-32,20.3
			c-24.4,12.5-47.2,18.2-64.2,20.8c-13.4,2.5-30.8,7-49.8,15.6c-18,8.2-32.2,17.6-42.6,25.7c-0.1,0.1-0.2,0.1-0.2,0.1
			c-2.4,1-38.9,16.6-42.9,18.3c-1.8,0.8-5.3,2.8-5.4,5.6c-0.1,1.5,1,2.7,1.2,3c2,2.2,6,1.9,10.8,0.9c4.6-1,19.2-6.6,19.3-6.6
			c0.1,0.1,2.6-1,5.8-2.2c0.7-0.2,2.1-0.8,3.7-0.3c0,0,1.7,0.6,1.3,1.6c-3.7,7.8-14.9,36.5-0.1,69.8c0.1,0.2,0.3,11.1,0.6,16.1
			c-13.3,0-26.4-0.1-39.7-0.1c1.5-5.5,2.6-10.6,3.1-14.4c0.3-1.7,0.6-5.6,1.3-13.3c0.9-9.6,1-11.3,0.7-14c-0.4-3.8-1.3-6.8-2.2-9.5
			c-1.4-4.5-3-8.1-4.2-10.5c-1.9-3.7-3.7-6.3-3.8-6.6c-5.2-9.8-12.6-31.1-1.7-67.7c0,0,0.4-1.6-0.2-2.5c0-0.4-0.1-0.9-0.4-1.2
			c-0.6-0.4-1.7,0.2-2,0.4c-27.1,14.8-39.1,9.8-39.1,9.8C29.1,239.1,26.4,238,26.1,236z"/>
	</g>
	<g>
		<path class="st2" d="M82.8,341.2c0.9-9.6,1-11.3,0.7-14c-0.4-3.8-1.3-6.8-2.2-9.5c-1.4-4.5-3-8.1-4.2-10.5
			c-1.9-3.7-3.7-6.3-3.8-6.6c-5.2-9.8-12.6-31.1-1.7-67.7c0,0,0.4-1.6-0.2-2.5c0-0.4-0.1-0.9-0.4-1.2c-0.6-0.4-1.7,0.2-2,0.4
			c-27.1,14.8-39.1,9.8-39.1,9.8c-0.8-0.3-3.5-1.4-3.8-3.4c-0.4-2.9,4.5-6,6.1-6.8c1.4-0.7,29.7-14.1,30.9-14.6l0,0
			c10.1-4.8,20.1-10.5,29.8-17.3c8-5.9,18.2-12.6,30.9-18.5c6.4-3,11.3-4.9,19.7-8c7.3-2.7,21.7-7.6,34.6-11.6
			c19.1-6,26.4-7.5,57.2-18.7c44.3-16.1,59.3-38.2,59.3-38.2s10-15.4,12.1-25.4c0.9-4.3,1.3-7.6,1.9-10.2
			c0.8-3.6-4.7-22.7,23.5-35.5c17.7-8.1,22.6-8.6,25.1-8.1c0.8,0.2,2.1,1.6,2.7,2c5.2,4,17.5,13.4,53.1-2.8c0.5-0.2,1.1-0.1,1.4,0.4
			c3.1,4.7,17.8,28.2,4.8,30.9c-0.4,0.1-0.8,0.4-0.9,0.8c-1.3,3.9-9.3,23.7-35.2,22.6c-0.2,0-0.4,0-0.5,0.1
			c-1.9,0.9-14.4,7.4-24.9,32.6c-0.1,0.3-0.4,0.6-0.7,0.7c-3.1,1.2-7.4,3.3-11.7,6.8c-5.6,4.7-9.8,13.5-10.4,14.9
			c-0.1,0.2-0.1,0.3-0.1,0.4c-0.4,1.6-3,11.3-4.4,15.5c-4.7,14.3-11.8,25.1-17.6,32.3c-0.1,0.1-0.1,0.1-0.2,0.2
			c-8.7,6.7-19.4,13.8-32,20.3c-24.4,12.5-47.2,18.2-64.2,20.8c-13.4,2.5-30.8,7-49.8,15.6c-18,8.2-32.2,17.6-42.6,25.7
			c-0.1,0.1-0.2,0.1-0.2,0.1c-2.4,1-38.9,16.6-42.9,18.3c-1.8,0.8-5.3,2.8-5.4,5.6c-0.1,1.5,1,2.7,1.2,3c2,2.2,6,1.9,10.8,0.9
			c4.6-1,19.2-6.6,19.3-6.6c0.1,0.1,2.6-1,5.8-2.2c0.7-0.2,2.1-0.8,3.7-0.3c0,0,1.7,0.6,1.3,1.6c-3.7,7.8-14.9,36.5-0.1,69.8
			c0.1,0.2,0.3,11.1,0.6,16.1c-13.3,0-26.4-0.1-39.7-0.1c1.5-5.5,2.6-10.6,3.1-14.4C81.7,352.9,82.1,349,82.8,341.2z"/>
	</g>
</g>
<g>
	<path class="st1" d="M325,50.3c0,0.4-0.6,9.8,11.2,16.2c0,0,22.4,40.3,8,44.9c-14.4,4.6-26.4-2-29.2-5.1
		c-2.8-3.1-8.1-34.6-6.2-42.3c0.1-0.3,0.2-0.5,0.2-0.8c0.2-0.4,0.3-0.6,0.6-0.8"/>
	<path class="st3" d="M325,50.3c0,0.9,0.2,1.7,0.3,2.5c0.1,0.4,0.2,0.8,0.3,1.2c0.1,0.4,0.3,0.8,0.4,1.2c0.2,0.4,0.3,0.8,0.5,1.2
		c0.2,0.4,0.4,0.8,0.6,1.1c0.2,0.4,0.4,0.7,0.7,1.1l0.8,1l0.8,1c0.3,0.3,0.6,0.6,0.9,0.9c0.3,0.3,0.6,0.6,0.9,0.9l1,0.8
		c0.6,0.5,1.4,1,2.1,1.4c0.4,0.2,0.7,0.4,1.1,0.6l1.1,0.6l0.2,0.1l0.1,0.2c2.6,4.6,5,9.2,7.2,14c2.1,4.8,4,9.7,5.3,14.9
		c0.6,2.6,1.1,5.3,1.1,8.1c0,1.4-0.2,2.8-0.6,4.3c-0.5,1.4-1.3,2.9-2.6,3.9l-1,0.7c-0.3,0.2-0.7,0.3-1.1,0.5
		c-0.2,0.1-0.3,0.1-0.6,0.2l-0.5,0.1l-0.9,0.3c-1.2,0.4-2.6,0.6-4,0.9c-2.7,0.4-5.5,0.4-8.2,0.2c-2.7-0.3-5.4-0.8-8-1.8
		c-2.6-0.9-5-2.2-7.3-3.8c-0.6-0.4-1.1-0.9-1.6-1.5l0-0.1l0,0c-0.2-0.2-0.1-0.1-0.1-0.1l-0.1-0.1l-0.1-0.2c-0.1-0.1-0.2-0.4-0.3-0.6
		c-0.2-0.4-0.3-0.7-0.5-1c-0.5-1.3-0.8-2.6-1.2-3.9c-0.6-2.6-1.1-5.2-1.6-7.8c-0.5-2.6-0.8-5.2-1.1-7.8c-0.3-2.6-0.6-5.2-0.8-7.8
		c-0.2-2.6-0.3-5.2-0.2-7.9c0-1.3,0.1-2.6,0.3-3.9c0.1-0.7,0.2-1.3,0.4-1.9c0.2-0.6,0.4-1.3,0.9-1.7c-0.5,0.4-0.6,1.1-0.8,1.7
		c-0.1,0.6-0.2,1.3-0.2,1.9c0,1.3,0,2.6,0.1,3.9c0.2,2.6,0.5,5.2,0.8,7.8c0.7,5.1,1.6,10.3,2.7,15.3c0.5,2.5,1.1,5.1,1.8,7.5
		c0.4,1.2,0.7,2.5,1.2,3.6c0.1,0.2,0.2,0.6,0.3,0.7c0.1,0.1,0.1,0.2,0.1,0.3l0.1,0.2l0.1,0.1c0,0,0.1,0.1-0.1-0.1l0,0l0,0
		c0.4,0.4,0.8,0.7,1.3,1.1c2,1.4,4.3,2.5,6.6,3.3c2.4,0.8,4.8,1.3,7.3,1.5c2.5,0.2,5,0.1,7.4-0.2c1.2-0.3,2.4-0.4,3.6-0.8l0.9-0.3
		l0.5-0.1c0,0,0.2-0.1,0.3-0.1c0.2-0.1,0.5-0.2,0.7-0.3c0.2-0.1,0.4-0.3,0.6-0.4c0.7-0.6,1.3-1.5,1.7-2.5c0.3-1.1,0.5-2.2,0.5-3.4
		c0-2.4-0.3-4.9-0.9-7.4c-0.5-2.5-1.3-5-2.1-7.4c-0.8-2.4-1.7-4.9-2.7-7.3c-1-2.4-2-4.8-3.1-7.1c-1.1-2.4-2.2-4.7-3.4-7l0.3,0.3
		l-1.1-0.7c-0.4-0.2-0.8-0.5-1.1-0.7c-0.7-0.6-1.4-1-2.1-1.7l-1-0.9c-0.3-0.3-0.6-0.6-0.9-1c-0.3-0.3-0.6-0.6-0.9-1
		c-0.3-0.4-0.5-0.7-0.8-1.1l-0.7-1.1c-0.2-0.4-0.4-0.8-0.6-1.2c-0.2-0.4-0.4-0.8-0.5-1.2c-0.2-0.4-0.3-0.8-0.4-1.2
		c-0.2-0.4-0.2-0.8-0.3-1.3c-0.1-0.4-0.2-0.9-0.2-1.3C325,52.1,324.9,51.2,325,50.3z"/>
</g>
<g>
	<path class="st3" d="M346.6,126.7c0,0-3,7.1,9.8,15c0,0,4.4,9.2,7.1,18.9c1.8,6.7,2.8,18.2-3.2,22.3c-5.1,3.5-14.8,1.1-22.7-6.4
		c-0.6-0.9-1.4-2.3-2.1-4c-2.3-5.5-2-10.1-1.9-15.6c0.1-4,0.2-9.9,0.1-17.5"/>
	<path d="M346.6,126.7c-0.2,0.8-0.2,1.6-0.2,2.4c0,0.4,0.1,0.8,0.2,1.2c0.1,0.4,0.2,0.8,0.4,1.1c0.2,0.4,0.3,0.7,0.5,1.1
		c0.2,0.3,0.4,0.7,0.6,1l0.7,1c0.2,0.3,0.5,0.6,0.7,0.9c0.2,0.3,0.5,0.6,0.8,0.9l0.8,0.8l0.9,0.7c0.3,0.2,0.6,0.5,0.9,0.7l1,0.7
		c0.3,0.2,0.6,0.5,1,0.7l2,1.2l0.2,0.1l0.1,0.2c1.3,2.6,2.5,5.2,3.6,7.9c1.1,2.7,2.1,5.4,3.1,8.2c0.2,0.7,0.4,1.4,0.6,2.1l0.2,0.5
		l0.2,0.5l0.3,1c0.4,1.5,0.6,2.9,0.8,4.4c0.2,1.5,0.3,3,0.3,4.5c0,1.5-0.1,3-0.3,4.5c-0.2,1.5-0.6,3.1-1.3,4.5
		c-0.6,1.5-1.6,2.9-2.9,4l-0.5,0.4l-0.1,0.1l0,0l0,0c0,0,0.1,0-0.1,0.1l-0.1,0l-0.2,0.1l-0.5,0.3c-0.1,0.1-0.3,0.2-0.5,0.3
		c-0.4,0.2-0.8,0.4-1.3,0.5l-1.2,0.3c-1.6,0.3-3.2,0.3-4.8,0.1c-1.6-0.2-3-0.6-4.5-1.1c-1.4-0.5-2.8-1.1-4.1-1.9
		c-1.3-0.7-2.6-1.6-3.8-2.5c-0.6-0.4-1.2-0.9-1.8-1.4l-1.7-1.5l-0.1-0.1l-0.1-0.1c-0.4-0.7-0.9-1.4-1.2-2.2c-0.4-0.7-0.7-1.5-1-2.3
		c-0.3-0.7-0.6-1.5-0.8-2.3c-0.2-0.8-0.4-1.6-0.6-2.4c-0.6-3.3-0.4-6.5-0.2-9.7c0-0.8,0.1-1.6,0.1-2.4l0.1-2.4l0.2-4.7
		c0.2-3.2,0.3-6.3,0.5-9.5c0.2,3.2,0.3,6.3,0.4,9.5l0.2,4.7l0.1,2.4c0,0.8,0,1.6,0,2.4c0,3.2,0.1,6.3,0.7,9.2
		c0.2,0.7,0.4,1.5,0.6,2.2c0.2,0.7,0.5,1.4,0.8,2.1c0.3,0.7,0.6,1.4,1,2c0.4,0.7,0.8,1.3,1.2,1.9l-0.2-0.2l1.6,1.4
		c0.6,0.4,1.1,0.9,1.7,1.3c1.1,0.8,2.3,1.5,3.5,2.2c1.2,0.7,2.5,1.2,3.7,1.6c1.3,0.4,2.6,0.8,3.9,0.9c1.3,0.1,2.6,0.1,3.8-0.1
		l0.9-0.2c0.3-0.1,0.5-0.2,0.8-0.3c0.1,0,0.1,0,0.2-0.1l0.2-0.1l0.5-0.3l0.2-0.1l0.1,0c-0.2,0.1,0,0-0.1,0l0,0l0,0l0.1-0.1l0.3-0.3
		c0.9-0.7,1.7-1.7,2.2-2.9c0.5-1.2,0.9-2.4,1.1-3.8c0.2-1.3,0.3-2.7,0.3-4.1c0-1.4-0.1-2.8-0.2-4.1c-0.2-1.4-0.4-2.8-0.7-4.1l-0.2-1
		l-0.1-0.5l-0.1-0.5c-0.2-0.7-0.4-1.4-0.6-2.1c-0.8-2.7-1.7-5.5-2.6-8.1c-1-2.7-2-5.4-3.1-8l0.3,0.4l-2-1.4c-0.3-0.2-0.6-0.5-1-0.8
		l-0.9-0.8c-0.3-0.3-0.6-0.6-0.9-0.8l-0.9-0.9l-0.8-0.9c-0.3-0.3-0.5-0.6-0.8-1c-0.2-0.3-0.5-0.7-0.7-1l-0.6-1.1
		c-0.2-0.4-0.3-0.8-0.5-1.1c-0.2-0.4-0.3-0.8-0.4-1.2c-0.1-0.4-0.2-0.8-0.3-1.2c0-0.4-0.1-0.8-0.1-1.2
		C346.1,128.3,346.2,127.4,346.6,126.7z"/>
</g>
<circle class="st1" cx="380.7" cy="119.8" r="4.3"/>
<circle class="st3" cx="361" cy="39.8" r="4.5"/>
<path class="st4" d="M363,108.8"/>
<path class="st4" d="M361.4,109.8"/>
<path d="M352.3,373.4"/>
<circle class="st5" cx="53.5" cy="252.7" r="0"/>
<path d="M80,334.2"/>
<path class="st6" d="M94.8,367.1"/>
<path class="st6" d="M95.3,367.1"/>
<path class="st7" d="M287.2,327.2c1.9-0.2,4-0.4,6.1-0.8c2.9-0.5,5.6-1.2,8.1-1.9c1.7,15.5,3.5,30.9,5.2,46.4c-6.8,0-13.7,0-20.5,0
	C286.5,356.3,286.9,341.7,287.2,327.2z"/>
<path class="st8" d="M118.3,368.6"/>
<path class="st1" d="M102.2,371.4"/>
<path class="st1" d="M450,578"/>
<path class="st1" d="M100.3,368.6"/>
<text transform="matrix(1 0 0 1 478 105.3257)" class="st1 st9 st10">DOGWOOD</text>
<text transform="matrix(1 0 0 1 478 235.604)" class="st2 st11 st12 st13">RESCUE</text>
<text transform="matrix(1 0 0 1 478 370.1283)" class="st14 st9 st12 st13">SOCIETY</text>
</svg>
